<svg xmlns="http://www.w3.org/2000/svg" viewBox="0 0 640 150.0" width="640" height="150.0" font-family="Helvetica, Arial, sans-serif">
<rect width="100%" height="100%" fill="#ffffff"/>

<text x="20" y="22" font-size="11.0" fill="#5b6b7c" text-anchor="start" >original</text>
<rect x="20" y="30" width="34" height="30" rx="4" fill="#eef3f7" stroke="#1d2733" stroke-width="1.4"/>
<text x="37.0" y="48.96" font-size="11.0" fill="#1d2733" text-anchor="middle" font-family="Menlo, monospace" xml:space="preserve">1</text>
<rect x="54" y="30" width="34" height="30" rx="4" fill="#eef3f7" stroke="#1d2733" stroke-width="1.4"/>
<text x="71.0" y="48.96" font-size="11.0" fill="#1d2733" text-anchor="middle" font-family="Menlo, monospace" xml:space="preserve">2</text>
<rect x="88" y="30" width="34" height="30" rx="4" fill="#eef3f7" stroke="#1d2733" stroke-width="1.4"/>
<text x="105.0" y="48.96" font-size="11.0" fill="#1d2733" text-anchor="middle" font-family="Menlo, monospace" xml:space="preserve">3</text>
<rect x="20" y="60" width="34" height="30" rx="4" fill="#eef3f7" stroke="#1d2733" stroke-width="1.4"/>
<text x="37.0" y="78.96" font-size="11.0" fill="#1d2733" text-anchor="middle" font-family="Menlo, monospace" xml:space="preserve">4</text>
<rect x="54" y="60" width="34" height="30" rx="4" fill="#eef3f7" stroke="#1d2733" stroke-width="1.4"/>
<text x="71.0" y="78.96" font-size="11.0" fill="#1d2733" text-anchor="middle" font-family="Menlo, monospace" xml:space="preserve">5</text>
<rect x="88" y="60" width="34" height="30" rx="4" fill="#eef3f7" stroke="#1d2733" stroke-width="1.4"/>
<text x="105.0" y="78.96" font-size="11.0" fill="#1d2733" text-anchor="middle" font-family="Menlo, monospace" xml:space="preserve">6</text>
<rect x="20" y="90" width="34" height="30" rx="4" fill="#eef3f7" stroke="#1d2733" stroke-width="1.4"/>
<text x="37.0" y="108.96" font-size="11.0" fill="#1d2733" text-anchor="middle" font-family="Menlo, monospace" xml:space="preserve">7</text>
<rect x="54" y="90" width="34" height="30" rx="4" fill="#eef3f7" stroke="#1d2733" stroke-width="1.4"/>
<text x="71.0" y="108.96" font-size="11.0" fill="#1d2733" text-anchor="middle" font-family="Menlo, monospace" xml:space="preserve">8</text>
<rect x="88" y="90" width="34" height="30" rx="4" fill="#eef3f7" stroke="#1d2733" stroke-width="1.4"/>
<text x="105.0" y="108.96" font-size="11.0" fill="#1d2733" text-anchor="middle" font-family="Menlo, monospace" xml:space="preserve">9</text>
<text x="230" y="22" font-size="11.0" fill="#5b6b7c" text-anchor="start" >after transpose</text>
<rect x="230" y="30" width="34" height="30" rx="4" fill="#eef3f7" stroke="#1d2733" stroke-width="1.4"/>
<text x="247.0" y="48.96" font-size="11.0" fill="#1d2733" text-anchor="middle" font-family="Menlo, monospace" xml:space="preserve">1</text>
<rect x="264" y="30" width="34" height="30" rx="4" fill="#eef3f7" stroke="#1d2733" stroke-width="1.4"/>
<text x="281.0" y="48.96" font-size="11.0" fill="#1d2733" text-anchor="middle" font-family="Menlo, monospace" xml:space="preserve">4</text>
<rect x="298" y="30" width="34" height="30" rx="4" fill="#eef3f7" stroke="#1d2733" stroke-width="1.4"/>
<text x="315.0" y="48.96" font-size="11.0" fill="#1d2733" text-anchor="middle" font-family="Menlo, monospace" xml:space="preserve">7</text>
<rect x="230" y="60" width="34" height="30" rx="4" fill="#eef3f7" stroke="#1d2733" stroke-width="1.4"/>
<text x="247.0" y="78.96" font-size="11.0" fill="#1d2733" text-anchor="middle" font-family="Menlo, monospace" xml:space="preserve">2</text>
<rect x="264" y="60" width="34" height="30" rx="4" fill="#eef3f7" stroke="#1d2733" stroke-width="1.4"/>
<text x="281.0" y="78.96" font-size="11.0" fill="#1d2733" text-anchor="middle" font-family="Menlo, monospace" xml:space="preserve">5</text>
<rect x="298" y="60" width="34" height="30" rx="4" fill="#eef3f7" stroke="#1d2733" stroke-width="1.4"/>
<text x="315.0" y="78.96" font-size="11.0" fill="#1d2733" text-anchor="middle" font-family="Menlo, monospace" xml:space="preserve">8</text>
<rect x="230" y="90" width="34" height="30" rx="4" fill="#eef3f7" stroke="#1d2733" stroke-width="1.4"/>
<text x="247.0" y="108.96" font-size="11.0" fill="#1d2733" text-anchor="middle" font-family="Menlo, monospace" xml:space="preserve">3</text>
<rect x="264" y="90" width="34" height="30" rx="4" fill="#eef3f7" stroke="#1d2733" stroke-width="1.4"/>
<text x="281.0" y="108.96" font-size="11.0" fill="#1d2733" text-anchor="middle" font-family="Menlo, monospace" xml:space="preserve">6</text>
<rect x="298" y="90" width="34" height="30" rx="4" fill="#eef3f7" stroke="#1d2733" stroke-width="1.4"/>
<text x="315.0" y="108.96" font-size="11.0" fill="#1d2733" text-anchor="middle" font-family="Menlo, monospace" xml:space="preserve">9</text>
<text x="440" y="22" font-size="11.0" fill="#5b6b7c" text-anchor="start" >after reversing rows</text>
<rect x="440" y="30" width="34" height="30" rx="4" fill="#eef3f7" stroke="#1d2733" stroke-width="1.4"/>
<text x="457.0" y="48.96" font-size="11.0" fill="#1d2733" text-anchor="middle" font-family="Menlo, monospace" xml:space="preserve">7</text>
<rect x="474" y="30" width="34" height="30" rx="4" fill="#eef3f7" stroke="#1d2733" stroke-width="1.4"/>
<text x="491.0" y="48.96" font-size="11.0" fill="#1d2733" text-anchor="middle" font-family="Menlo, monospace" xml:space="preserve">4</text>
<rect x="508" y="30" width="34" height="30" rx="4" fill="#eef3f7" stroke="#1d2733" stroke-width="1.4"/>
<text x="525.0" y="48.96" font-size="11.0" fill="#1d2733" text-anchor="middle" font-family="Menlo, monospace" xml:space="preserve">1</text>
<rect x="440" y="60" width="34" height="30" rx="4" fill="#eef3f7" stroke="#1d2733" stroke-width="1.4"/>
<text x="457.0" y="78.96" font-size="11.0" fill="#1d2733" text-anchor="middle" font-family="Menlo, monospace" xml:space="preserve">8</text>
<rect x="474" y="60" width="34" height="30" rx="4" fill="#eef3f7" stroke="#1d2733" stroke-width="1.4"/>
<text x="491.0" y="78.96" font-size="11.0" fill="#1d2733" text-anchor="middle" font-family="Menlo, monospace" xml:space="preserve">5</text>
<rect x="508" y="60" width="34" height="30" rx="4" fill="#eef3f7" stroke="#1d2733" stroke-width="1.4"/>
<text x="525.0" y="78.96" font-size="11.0" fill="#1d2733" text-anchor="middle" font-family="Menlo, monospace" xml:space="preserve">2</text>
<rect x="440" y="90" width="34" height="30" rx="4" fill="#eef3f7" stroke="#1d2733" stroke-width="1.4"/>
<text x="457.0" y="108.96" font-size="11.0" fill="#1d2733" text-anchor="middle" font-family="Menlo, monospace" xml:space="preserve">9</text>
<rect x="474" y="90" width="34" height="30" rx="4" fill="#eef3f7" stroke="#1d2733" stroke-width="1.4"/>
<text x="491.0" y="108.96" font-size="11.0" fill="#1d2733" text-anchor="middle" font-family="Menlo, monospace" xml:space="preserve">6</text>
<rect x="508" y="90" width="34" height="30" rx="4" fill="#eef3f7" stroke="#1d2733" stroke-width="1.4"/>
<text x="525.0" y="108.96" font-size="11.0" fill="#1d2733" text-anchor="middle" font-family="Menlo, monospace" xml:space="preserve">3</text>
<line x1="130" y1="75" x2="225" y2="75" stroke="#2f7f86" stroke-width="1.6"/>
<polygon points="225,75 217.8,78.5 217.8,71.5" fill="#2f7f86"/>
<line x1="340" y1="75" x2="435" y2="75" stroke="#2f7f86" stroke-width="1.6"/>
<polygon points="435,75 427.8,78.5 427.8,71.5" fill="#2f7f86"/>
<text x="20" y="140" font-size="11.0" fill="#1d2733" text-anchor="start" >Transpose swaps m[i][j] with m[j][i]. Reversing each row then gives a clockwise quarter turn.</text>
</svg>
