<?xml version="1.0" encoding="UTF-8" standalone="no"?>
<!DOCTYPE svg PUBLIC "-//W3C//DTD SVG 1.1//EN"
 "http://www.w3.org/Graphics/SVG/1.1/DTD/svg11.dtd">
<!-- Generated by graphviz version 13.1.0 (20250701.0955)
 -->
<!-- Title: tables Pages: 1 -->
<svg width="555pt" height="262pt"
 viewBox="0.00 0.00 555.00 262.00" xmlns="http://www.w3.org/2000/svg" xmlns:xlink="http://www.w3.org/1999/xlink">
<g id="graph0" class="graph" transform="scale(1 1) rotate(0) translate(14.4 247.22)">
<title>tables</title>
<g id="clust1" class="cluster">
<title>cluster_k</title>
<path fill="none" stroke="#c9d4de" stroke-dasharray="5,2" d="M190.03,-8C190.03,-8 506.34,-8 506.34,-8 512.34,-8 518.34,-14 518.34,-20 518.34,-20 518.34,-175 518.34,-175 518.34,-181 512.34,-187 506.34,-187 506.34,-187 190.03,-187 190.03,-187 184.03,-187 178.03,-181 178.03,-175 178.03,-175 178.03,-20 178.03,-20 178.03,-14 184.03,-8 190.03,-8"/>
<text xml:space="preserve" text-anchor="middle" x="348.19" y="-13.75" font-family="Helvetica,sans-Serif" font-size="10.00">kernel, shared by all processes</text>
</g>
<!-- table -->
<g id="node1" class="node">
<title>table</title>
<polygon fill="#fbfcfd" stroke="none" points="8.64,-39.5 8.64,-228.5 137.39,-228.5 137.39,-39.5 8.64,-39.5"/>
<polygon fill="#e6ecf6" stroke="none" points="9.64,-193.5 9.64,-227.5 136.39,-227.5 136.39,-193.5 9.64,-193.5"/>
<polygon fill="none" stroke="#1d2733" points="9.64,-193.5 9.64,-227.5 136.39,-227.5 136.39,-193.5 9.64,-193.5"/>
<text xml:space="preserve" text-anchor="start" x="19.01" y="-212.05" font-family="Menlo" font-weight="bold" font-size="11.00">descriptor table</text>
<text xml:space="preserve" text-anchor="start" x="15.64" y="-201.05" font-family="Menlo" font-size="11.00">(one per process)</text>
<polygon fill="none" stroke="#1d2733" points="9.64,-168 9.64,-193.5 56.14,-193.5 56.14,-168 9.64,-168"/>
<text xml:space="preserve" text-anchor="start" x="29.51" y="-177.05" font-family="Menlo" font-size="11.00">0</text>
<polygon fill="none" stroke="#1d2733" points="56.14,-168 56.14,-193.5 136.39,-193.5 136.39,-168 56.14,-168"/>
<text xml:space="preserve" text-anchor="start" x="79.39" y="-177.05" font-family="Menlo" font-size="11.00">stdin</text>
<polygon fill="none" stroke="#1d2733" points="9.64,-142.5 9.64,-168 56.14,-168 56.14,-142.5 9.64,-142.5"/>
<text xml:space="preserve" text-anchor="start" x="29.51" y="-151.55" font-family="Menlo" font-size="11.00">1</text>
<polygon fill="none" stroke="#1d2733" points="56.14,-142.5 56.14,-168 136.39,-168 136.39,-142.5 56.14,-142.5"/>
<text xml:space="preserve" text-anchor="start" x="76.01" y="-151.55" font-family="Menlo" font-size="11.00">stdout</text>
<polygon fill="none" stroke="#1d2733" points="9.64,-117 9.64,-142.5 56.14,-142.5 56.14,-117 9.64,-117"/>
<text xml:space="preserve" text-anchor="start" x="29.51" y="-126.05" font-family="Menlo" font-size="11.00">2</text>
<polygon fill="none" stroke="#1d2733" points="56.14,-117 56.14,-142.5 136.39,-142.5 136.39,-117 56.14,-117"/>
<text xml:space="preserve" text-anchor="start" x="76.01" y="-126.05" font-family="Menlo" font-size="11.00">stderr</text>
<polygon fill="none" stroke="#1d2733" points="9.64,-91.5 9.64,-117 56.14,-117 56.14,-91.5 9.64,-91.5"/>
<text xml:space="preserve" text-anchor="start" x="29.51" y="-100.55" font-family="Menlo" font-size="11.00">3</text>
<polygon fill="none" stroke="#1d2733" points="56.14,-91.5 56.14,-117 136.39,-117 136.39,-91.5 56.14,-91.5"/>
<text xml:space="preserve" text-anchor="start" x="79.39" y="-100.55" font-family="Menlo" font-size="11.00">a.txt</text>
<polygon fill="none" stroke="#1d2733" points="9.64,-66 9.64,-91.5 56.14,-91.5 56.14,-66 9.64,-66"/>
<text xml:space="preserve" text-anchor="start" x="29.51" y="-75.05" font-family="Menlo" font-size="11.00">4</text>
<polygon fill="none" stroke="#1d2733" points="56.14,-66 56.14,-91.5 136.39,-91.5 136.39,-66 56.14,-66"/>
<text xml:space="preserve" text-anchor="start" x="79.39" y="-75.05" font-family="Menlo" font-size="11.00">a.txt</text>
<polygon fill="none" stroke="#1d2733" points="9.64,-40.5 9.64,-66 56.14,-66 56.14,-40.5 9.64,-40.5"/>
<text xml:space="preserve" text-anchor="start" x="22.76" y="-49.55" font-family="Menlo" font-size="11.00">100</text>
<polygon fill="none" stroke="#1d2733" points="56.14,-40.5 56.14,-66 136.39,-66 136.39,-40.5 56.14,-40.5"/>
<text xml:space="preserve" text-anchor="start" x="69.26" y="-49.55" font-family="Menlo" font-size="11.00">dup of 4</text>
<polygon fill="none" stroke="#1d2733" points="8.64,-39.5 8.64,-228.5 137.39,-228.5 137.39,-39.5 8.64,-39.5"/>
</g>
<!-- tty -->
<g id="node2" class="node">
<title>tty</title>
<path fill="#eef3f7" stroke="#1d2733" stroke-width="1.4" d="M353.31,-179C353.31,-179 198.03,-179 198.03,-179 192.03,-179 186.03,-173 186.03,-167 186.03,-167 186.03,-155 186.03,-155 186.03,-149 192.03,-143 198.03,-143 198.03,-143 353.31,-143 353.31,-143 359.31,-143 365.31,-149 365.31,-155 365.31,-155 365.31,-167 365.31,-167 365.31,-173 359.31,-179 353.31,-179"/>
<text xml:space="preserve" text-anchor="middle" x="275.67" y="-164.05" font-family="Menlo" font-size="11.00">open file description</text>
<text xml:space="preserve" text-anchor="middle" x="275.67" y="-150.55" font-family="Menlo" font-size="11.00">the terminal, read/write</text>
</g>
<!-- table&#45;&gt;tty -->
<g id="edge1" class="edge">
<title>table:f0&#45;&gt;tty</title>
<path fill="none" stroke="#1d2733" stroke-width="1.3" d="M137.39,-180.75C150.23,-180.75 163.67,-179.89 176.92,-178.54"/>
<polygon fill="#1d2733" stroke="#1d2733" stroke-width="1.3" points="176.94,-181 183.63,-177.79 176.4,-176.13 176.94,-181"/>
</g>
<!-- table&#45;&gt;tty -->
<g id="edge2" class="edge">
<title>table:f1&#45;&gt;tty</title>
<path fill="none" stroke="#1d2733" stroke-width="1.3" d="M137.39,-155.25C150.11,-155.25 163.49,-155.5 176.69,-155.89"/>
<polygon fill="#1d2733" stroke="#1d2733" stroke-width="1.3" points="176.3,-158.33 183.37,-156.11 176.46,-153.44 176.3,-158.33"/>
</g>
<!-- table&#45;&gt;tty -->
<g id="edge3" class="edge">
<title>table:f2&#45;&gt;tty</title>
<path fill="none" stroke="#1d2733" stroke-width="1.3" d="M137.39,-129.75C149.58,-129.75 173.11,-134.49 197.29,-140.28"/>
<polygon fill="#1d2733" stroke="#1d2733" stroke-width="1.3" points="196.56,-142.63 203.94,-141.9 197.72,-137.87 196.56,-142.63"/>
</g>
<!-- d1 -->
<g id="node3" class="node">
<title>d1</title>
<path fill="#e3f1ea" stroke="#1d2733" stroke-width="1.4" d="M343.19,-125C343.19,-125 208.16,-125 208.16,-125 202.16,-125 196.16,-119 196.16,-113 196.16,-113 196.16,-101 196.16,-101 196.16,-95 202.16,-89 208.16,-89 208.16,-89 343.19,-89 343.19,-89 349.19,-89 355.19,-95 355.19,-101 355.19,-101 355.19,-113 355.19,-113 355.19,-119 349.19,-125 343.19,-125"/>
<text xml:space="preserve" text-anchor="middle" x="275.67" y="-110.05" font-family="Menlo" font-size="11.00">open file description</text>
<text xml:space="preserve" text-anchor="middle" x="275.67" y="-96.55" font-family="Menlo" font-size="11.00">offset 0, read&#45;only</text>
</g>
<!-- table&#45;&gt;d1 -->
<g id="edge4" class="edge">
<title>table:f3&#45;&gt;d1</title>
<path fill="none" stroke="#1d2733" stroke-width="1.3" d="M137.39,-104.25C153.43,-104.25 170.52,-104.44 186.99,-104.72"/>
<polygon fill="#1d2733" stroke="#1d2733" stroke-width="1.3" points="186.54,-107.16 193.58,-104.84 186.63,-102.26 186.54,-107.16"/>
</g>
<!-- d2 -->
<g id="node4" class="node">
<title>d2</title>
<path fill="#fdf6e8" stroke="#1d2733" stroke-width="1.4" d="M343.19,-71C343.19,-71 208.16,-71 208.16,-71 202.16,-71 196.16,-65 196.16,-59 196.16,-59 196.16,-47 196.16,-47 196.16,-41 202.16,-35 208.16,-35 208.16,-35 343.19,-35 343.19,-35 349.19,-35 355.19,-41 355.19,-47 355.19,-47 355.19,-59 355.19,-59 355.19,-65 349.19,-71 343.19,-71"/>
<text xml:space="preserve" text-anchor="middle" x="275.67" y="-56.05" font-family="Menlo" font-size="11.00">open file description</text>
<text xml:space="preserve" text-anchor="middle" x="275.67" y="-42.55" font-family="Menlo" font-size="11.00">offset 5, read&#45;only</text>
</g>
<!-- table&#45;&gt;d2 -->
<g id="edge5" class="edge">
<title>table:f4&#45;&gt;d2</title>
<path fill="none" stroke="#1d2733" stroke-width="1.3" d="M137.39,-78.75C155.92,-78.75 175.61,-76.46 194.13,-73.24"/>
<polygon fill="#1d2733" stroke="#1d2733" stroke-width="1.3" points="194.45,-75.67 200.89,-72 193.57,-70.85 194.45,-75.67"/>
</g>
<!-- table&#45;&gt;d2 -->
<g id="edge6" class="edge">
<title>table:f100&#45;&gt;d2</title>
<path fill="none" stroke="#1d2733" stroke-width="1.3" d="M137.39,-53.25C153.42,-53.25 170.51,-53.23 186.99,-53.21"/>
<polygon fill="#1d2733" stroke="#1d2733" stroke-width="1.3" points="186.58,-55.66 193.58,-53.2 186.57,-50.76 186.58,-55.66"/>
</g>
<!-- inode -->
<g id="node5" class="node">
<title>inode</title>
<path fill="#eef3f7" stroke="#1d2733" stroke-width="1.4" d="M510.34,-103.05C510.34,-105.51 486.8,-107.5 457.83,-107.5 428.85,-107.5 405.31,-105.51 405.31,-103.05 405.31,-103.05 405.31,-62.95 405.31,-62.95 405.31,-60.49 428.85,-58.5 457.83,-58.5 486.8,-58.5 510.34,-60.49 510.34,-62.95 510.34,-62.95 510.34,-103.05 510.34,-103.05"/>
<path fill="none" stroke="#1d2733" stroke-width="1.4" d="M510.34,-103.05C510.34,-100.59 486.8,-98.59 457.83,-98.59 428.85,-98.59 405.31,-100.59 405.31,-103.05"/>
<text xml:space="preserve" text-anchor="middle" x="457.83" y="-86.05" font-family="Menlo" font-size="11.00">a.txt on disk</text>
<text xml:space="preserve" text-anchor="middle" x="457.83" y="-72.55" font-family="Menlo" font-size="11.00">(inode)</text>
</g>
<!-- d1&#45;&gt;inode -->
<g id="edge7" class="edge">
<title>d1&#45;&gt;inode</title>
<path fill="none" stroke="#1d2733" stroke-width="1.3" d="M355.69,-96.47C369.21,-94.67 383.06,-92.83 396.02,-91.1"/>
<polygon fill="#1d2733" stroke="#1d2733" stroke-width="1.3" points="396.26,-93.54 402.87,-90.19 395.61,-88.68 396.26,-93.54"/>
</g>
<!-- d2&#45;&gt;inode -->
<g id="edge8" class="edge">
<title>d2&#45;&gt;inode</title>
<path fill="none" stroke="#1d2733" stroke-width="1.3" d="M355.69,-66.16C369.21,-68.41 383.06,-70.72 396.02,-72.87"/>
<polygon fill="#1d2733" stroke="#1d2733" stroke-width="1.3" points="395.57,-75.28 402.88,-74.02 396.38,-70.45 395.57,-75.28"/>
</g>
</g>
</svg>
