<?xml version="1.0" encoding="UTF-8" standalone="no"?>
<!DOCTYPE svg PUBLIC "-//W3C//DTD SVG 1.1//EN"
 "http://www.w3.org/Graphics/SVG/1.1/DTD/svg11.dtd">
<!-- Generated by graphviz version 13.1.0 (20250701.0955)
 -->
<!-- Title: stale Pages: 1 -->
<svg width="905pt" height="149pt"
 viewBox="0.00 0.00 905.00 149.00" xmlns="http://www.w3.org/2000/svg" xmlns:xlink="http://www.w3.org/1999/xlink">
<g id="graph0" class="graph" transform="scale(1 1) rotate(0) translate(14.4 134.54)">
<title>stale</title>
<!-- t0 -->
<g id="node1" class="node">
<title>t0</title>
<path fill="#e3f1ea" stroke="#1d2733" stroke-width="1.4" d="M133.53,-84.14C133.53,-84.14 12,-84.14 12,-84.14 6,-84.14 0,-78.14 0,-72.14 0,-72.14 0,-47 0,-47 0,-41 6,-35 12,-35 12,-35 133.53,-35 133.53,-35 139.53,-35 145.53,-41 145.53,-47 145.53,-47 145.53,-72.14 145.53,-72.14 145.53,-78.14 139.53,-84.14 133.53,-84.14"/>
<text xml:space="preserve" text-anchor="middle" x="72.76" y="-69.37" font-family="Menlo" font-size="11.00">t = 0</text>
<text xml:space="preserve" text-anchor="middle" x="72.76" y="-55.87" font-family="Menlo" font-size="11.00">request done,</text>
<text xml:space="preserve" text-anchor="middle" x="72.76" y="-42.37" font-family="Menlo" font-size="11.00">connection returned</text>
</g>
<!-- t1 -->
<g id="node2" class="node">
<title>t1</title>
<path fill="#fbe3d6" stroke="#1d2733" stroke-width="1.4" d="M331.31,-84.14C331.31,-84.14 189.53,-84.14 189.53,-84.14 183.53,-84.14 177.53,-78.14 177.53,-72.14 177.53,-72.14 177.53,-47 177.53,-47 177.53,-41 183.53,-35 189.53,-35 189.53,-35 331.31,-35 331.31,-35 337.31,-35 343.31,-41 343.31,-47 343.31,-47 343.31,-72.14 343.31,-72.14 343.31,-78.14 337.31,-84.14 331.31,-84.14"/>
<text xml:space="preserve" text-anchor="middle" x="260.42" y="-69.37" font-family="Menlo" font-size="11.00">t = 50 ms</text>
<text xml:space="preserve" text-anchor="middle" x="260.42" y="-55.87" font-family="Menlo" font-size="11.00">server&#39;s idle timeout:</text>
<text xml:space="preserve" text-anchor="middle" x="260.42" y="-42.37" font-family="Menlo" font-size="11.00">it sends FIN</text>
</g>
<!-- t0&#45;&gt;t1 -->
<g id="edge1" class="edge">
<title>t0&#45;&gt;t1</title>
<path fill="none" stroke="#1d2733" stroke-width="1.3" d="M146.08,-59.57C153.39,-59.57 160.89,-59.57 168.37,-59.57"/>
<polygon fill="#1d2733" stroke="#1d2733" stroke-width="1.3" points="168.17,-62.02 175.17,-59.57 168.17,-57.12 168.17,-62.02"/>
</g>
<!-- t2 -->
<g id="node3" class="node">
<title>t2</title>
<path fill="#eef3f7" stroke="#1d2733" stroke-width="1.4" d="M515.59,-77.57C515.59,-77.57 387.31,-77.57 387.31,-77.57 381.31,-77.57 375.31,-71.57 375.31,-65.57 375.31,-65.57 375.31,-53.57 375.31,-53.57 375.31,-47.57 381.31,-41.57 387.31,-41.57 387.31,-41.57 515.59,-41.57 515.59,-41.57 521.59,-41.57 527.59,-47.57 527.59,-53.57 527.59,-53.57 527.59,-65.57 527.59,-65.57 527.59,-71.57 521.59,-77.57 515.59,-77.57"/>
<text xml:space="preserve" text-anchor="middle" x="451.45" y="-62.62" font-family="Menlo" font-size="11.00">FIN sits unread</text>
<text xml:space="preserve" text-anchor="middle" x="451.45" y="-49.12" font-family="Menlo" font-size="11.00">in the pooled socket</text>
</g>
<!-- t1&#45;&gt;t2 -->
<g id="edge2" class="edge">
<title>t1&#45;&gt;t2</title>
<path fill="none" stroke="#1d2733" stroke-width="1.3" d="M343.78,-59.57C351.15,-59.57 358.61,-59.57 366,-59.57"/>
<polygon fill="#1d2733" stroke="#1d2733" stroke-width="1.3" points="365.65,-62.02 372.65,-59.57 365.65,-57.12 365.65,-62.02"/>
</g>
<!-- t3 -->
<g id="node4" class="node">
<title>t3</title>
<path fill="#fdf6e8" stroke="#1d2733" stroke-width="1.4" d="M659.37,-77.57C659.37,-77.57 571.59,-77.57 571.59,-77.57 565.59,-77.57 559.59,-71.57 559.59,-65.57 559.59,-65.57 559.59,-53.57 559.59,-53.57 559.59,-47.57 565.59,-41.57 571.59,-41.57 571.59,-41.57 659.37,-41.57 659.37,-41.57 665.37,-41.57 671.37,-47.57 671.37,-53.57 671.37,-53.57 671.37,-65.57 671.37,-65.57 671.37,-71.57 665.37,-77.57 659.37,-77.57"/>
<text xml:space="preserve" text-anchor="middle" x="615.48" y="-62.62" font-family="Menlo" font-size="11.00">t = 100 ms</text>
<text xml:space="preserve" text-anchor="middle" x="615.48" y="-49.12" font-family="Menlo" font-size="11.00">get() lends it</text>
</g>
<!-- t2&#45;&gt;t3 -->
<g id="edge3" class="edge">
<title>t2&#45;&gt;t3</title>
<path fill="none" stroke="#1d2733" stroke-width="1.3" d="M528.25,-59.57C535.71,-59.57 543.22,-59.57 550.55,-59.57"/>
<polygon fill="#1d2733" stroke="#1d2733" stroke-width="1.3" points="550.07,-62.02 557.07,-59.57 550.07,-57.12 550.07,-62.02"/>
</g>
<!-- bad -->
<g id="node5" class="node">
<title>bad</title>
<path fill="#fbe3d6" stroke="#1d2733" stroke-width="1.4" d="M853.78,-120.14C853.78,-120.14 725.5,-120.14 725.5,-120.14 719.5,-120.14 713.5,-114.14 713.5,-108.14 713.5,-108.14 713.5,-83 713.5,-83 713.5,-77 719.5,-71 725.5,-71 725.5,-71 853.78,-71 853.78,-71 859.78,-71 865.78,-77 865.78,-83 865.78,-83 865.78,-108.14 865.78,-108.14 865.78,-114.14 859.78,-120.14 853.78,-120.14"/>
<text xml:space="preserve" text-anchor="middle" x="789.64" y="-105.37" font-family="Menlo" font-size="11.00">without the check:</text>
<text xml:space="preserve" text-anchor="middle" x="789.64" y="-91.87" font-family="Menlo" font-size="11.00">write, then read = 0</text>
<text xml:space="preserve" text-anchor="middle" x="789.64" y="-78.37" font-family="Menlo" font-size="11.00">the request fails</text>
</g>
<!-- t3&#45;&gt;bad -->
<g id="edge4" class="edge">
<title>t3&#45;&gt;bad</title>
<path fill="none" stroke="#1d2733" stroke-width="1.3" d="M671.9,-71.16C682.21,-73.32 693.21,-75.61 704.16,-77.91"/>
<polygon fill="#1d2733" stroke="#1d2733" stroke-width="1.3" points="703.65,-80.3 711,-79.34 704.65,-75.5 703.65,-80.3"/>
</g>
<!-- good -->
<g id="node6" class="node">
<title>good</title>
<path fill="#e3f1ea" stroke="#1d2733" stroke-width="1.4" d="M863.9,-49.14C863.9,-49.14 715.37,-49.14 715.37,-49.14 709.37,-49.14 703.37,-43.14 703.37,-37.14 703.37,-37.14 703.37,-12 703.37,-12 703.37,-6 709.37,0 715.37,0 715.37,0 863.9,0 863.9,0 869.9,0 875.9,-6 875.9,-12 875.9,-12 875.9,-37.14 875.9,-37.14 875.9,-43.14 869.9,-49.14 863.9,-49.14"/>
<text xml:space="preserve" text-anchor="middle" x="789.64" y="-34.37" font-family="Menlo" font-size="11.00">check_alive:</text>
<text xml:space="preserve" text-anchor="middle" x="789.64" y="-20.87" font-family="Menlo" font-size="11.00">peek sees the FIN,</text>
<text xml:space="preserve" text-anchor="middle" x="789.64" y="-7.37" font-family="Menlo" font-size="11.00">close it, connect again</text>
</g>
<!-- t3&#45;&gt;good -->
<g id="edge5" class="edge">
<title>t3&#45;&gt;good</title>
<path fill="none" stroke="#1d2733" stroke-width="1.3" d="M671.9,-48.3C679.19,-46.82 686.82,-45.27 694.53,-43.7"/>
<polygon fill="#1d2733" stroke="#1d2733" stroke-width="1.3" points="694.63,-46.18 701,-42.39 693.65,-41.38 694.63,-46.18"/>
</g>
</g>
</svg>
