<?xml version="1.0" encoding="UTF-8" standalone="no"?>
<!DOCTYPE svg PUBLIC "-//W3C//DTD SVG 1.1//EN"
 "http://www.w3.org/Graphics/SVG/1.1/DTD/svg11.dtd">
<!-- Generated by graphviz version 13.1.0 (20250701.0955)
 -->
<!-- Title: layout Pages: 1 -->
<svg width="1055pt" height="159pt"
 viewBox="0.00 0.00 1055.00 159.00" xmlns="http://www.w3.org/2000/svg" xmlns:xlink="http://www.w3.org/1999/xlink">
<g id="graph0" class="graph" transform="scale(1 1) rotate(0) translate(14.4 144.4)">
<title>layout</title>
<g id="clust1" class="cluster">
<title>cluster_ref</title>
<path fill="none" stroke="#2f7f86" d="M12,-40C12,-40 356.5,-40 356.5,-40 362.5,-40 368.5,-46 368.5,-52 368.5,-52 368.5,-110 368.5,-110 368.5,-116 362.5,-122 356.5,-122 356.5,-122 12,-122 12,-122 6,-122 0,-116 0,-110 0,-110 0,-52 0,-52 0,-46 6,-40 12,-40"/>
<text xml:space="preserve" text-anchor="middle" x="184.25" y="-106.6" font-family="Menlo" font-size="12.00">HashMap&lt;u32, &amp;&#39;a User&gt;: each entry is a pointer</text>
</g>
<g id="clust2" class="cluster">
<title>cluster_copy</title>
<path fill="none" stroke="#d9622b" d="M721.78,-8C721.78,-8 1013.78,-8 1013.78,-8 1019.78,-8 1025.78,-14 1025.78,-20 1025.78,-20 1025.78,-78 1025.78,-78 1025.78,-84 1019.78,-90 1013.78,-90 1013.78,-90 721.78,-90 721.78,-90 715.78,-90 709.78,-84 709.78,-78 709.78,-78 709.78,-20 709.78,-20 709.78,-14 715.78,-8 721.78,-8"/>
<text xml:space="preserve" text-anchor="middle" x="867.78" y="-74.6" font-family="Menlo" font-size="12.00">HashMap&lt;u32, User&gt;: each entry is a copy</text>
</g>
<!-- m2 -->
<g id="node1" class="node">
<title>m2</title>
<path fill="#e3f1ea" stroke="#1d2733" stroke-width="1.4" d="M154.47,-48.61C154.47,-48.61 213.03,-48.61 213.03,-48.61 219.03,-48.61 225.03,-54.61 225.03,-60.61 225.03,-60.61 225.03,-79.39 225.03,-79.39 225.03,-85.39 219.03,-91.39 213.03,-91.39 213.03,-91.39 154.47,-91.39 154.47,-91.39 148.47,-91.39 142.47,-85.39 142.47,-79.39 142.47,-79.39 142.47,-60.61 142.47,-60.61 142.47,-54.61 148.47,-48.61 154.47,-48.61"/>
<text xml:space="preserve" text-anchor="middle" x="160.11" y="-77.57" font-family="Menlo" font-size="10.00">101</text>
<polyline fill="none" stroke="#1d2733" stroke-width="1.4" points="177.75,-70 177.75,-91.39"/>
<text xml:space="preserve" text-anchor="middle" x="201.39" y="-77.57" font-family="Menlo" font-size="10.00">&amp;User</text>
<polyline fill="none" stroke="#1d2733" stroke-width="1.4" points="142.47,-70 225.03,-70"/>
<text xml:space="preserve" text-anchor="middle" x="160.11" y="-56.18" font-family="Menlo" font-size="10.00">102</text>
<polyline fill="none" stroke="#1d2733" stroke-width="1.4" points="177.75,-48.61 177.75,-70"/>
<text xml:space="preserve" text-anchor="middle" x="201.39" y="-56.18" font-family="Menlo" font-size="10.00">&amp;User</text>
</g>
<!-- users -->
<g id="node2" class="node">
<title>users</title>
<path fill="#fdf6e8" stroke="#1d2733" stroke-width="1.4" d="M437.5,-27.22C437.5,-27.22 640.78,-27.22 640.78,-27.22 646.78,-27.22 652.78,-33.22 652.78,-39.22 652.78,-39.22 652.78,-100.78 652.78,-100.78 652.78,-106.78 646.78,-112.78 640.78,-112.78 640.78,-112.78 437.5,-112.78 437.5,-112.78 431.5,-112.78 425.5,-106.78 425.5,-100.78 425.5,-100.78 425.5,-39.22 425.5,-39.22 425.5,-33.22 431.5,-27.22 437.5,-27.22"/>
<text xml:space="preserve" text-anchor="middle" x="539.14" y="-98.96" font-family="Menlo" font-size="10.00">users: [User] (owned, lives for &#39;a)</text>
<polyline fill="none" stroke="#1d2733" stroke-width="1.4" points="425.5,-91.39 652.78,-91.39"/>
<text xml:space="preserve" text-anchor="middle" x="539.14" y="-77.57" font-family="Menlo" font-size="10.00">User 101 &quot;Alice&quot;</text>
<polyline fill="none" stroke="#1d2733" stroke-width="1.4" points="425.5,-70 652.78,-70"/>
<text xml:space="preserve" text-anchor="middle" x="539.14" y="-56.18" font-family="Menlo" font-size="10.00">User 102 &quot;Bob&quot;</text>
<polyline fill="none" stroke="#1d2733" stroke-width="1.4" points="425.5,-48.61 652.78,-48.61"/>
<text xml:space="preserve" text-anchor="middle" x="539.14" y="-34.79" font-family="Menlo" font-size="10.00">User 103 &quot;Charlie&quot;</text>
</g>
<!-- m2&#45;&gt;users -->
<g id="edge1" class="edge">
<title>m2:e&#45;&gt;users:w</title>
<path fill="none" stroke="#2f7f86" stroke-width="1.3" d="M226.03,-80.69C311.74,-80.7 335.3,-80.7 416.88,-80.69"/>
<polygon fill="#2f7f86" stroke="#2f7f86" stroke-width="1.3" points="416.53,-83.15 423.53,-80.7 416.53,-78.25 416.53,-83.15"/>
</g>
<!-- m2&#45;&gt;users -->
<g id="edge2" class="edge">
<title>m2:e&#45;&gt;users:w</title>
<path fill="none" stroke="#2f7f86" stroke-width="1.3" d="M226.03,-59.3C311.74,-59.31 335.3,-59.31 416.88,-59.3"/>
<polygon fill="#2f7f86" stroke="#2f7f86" stroke-width="1.3" points="416.53,-61.76 423.53,-59.31 416.53,-56.86 416.53,-61.76"/>
</g>
<!-- m1 -->
<g id="node3" class="node">
<title>m1</title>
<path fill="#fbe3d6" stroke="#1d2733" stroke-width="1.4" d="M754,-16.61C754,-16.61 980.56,-16.61 980.56,-16.61 986.56,-16.61 992.56,-22.61 992.56,-28.61 992.56,-28.61 992.56,-47.39 992.56,-47.39 992.56,-53.39 986.56,-59.39 980.56,-59.39 980.56,-59.39 754,-59.39 754,-59.39 748,-59.39 742,-53.39 742,-47.39 742,-47.39 742,-28.61 742,-28.61 742,-22.61 748,-16.61 754,-16.61"/>
<text xml:space="preserve" text-anchor="middle" x="759.64" y="-45.57" font-family="Menlo" font-size="10.00">101</text>
<polyline fill="none" stroke="#1d2733" stroke-width="1.4" points="777.28,-38 777.28,-59.39"/>
<text xml:space="preserve" text-anchor="middle" x="884.92" y="-45.57" font-family="Menlo" font-size="10.00">User { id, name: String } (clone)</text>
<polyline fill="none" stroke="#1d2733" stroke-width="1.4" points="742,-38 992.56,-38"/>
<text xml:space="preserve" text-anchor="middle" x="759.64" y="-24.18" font-family="Menlo" font-size="10.00">102</text>
<polyline fill="none" stroke="#1d2733" stroke-width="1.4" points="777.28,-16.61 777.28,-38"/>
<text xml:space="preserve" text-anchor="middle" x="884.92" y="-24.18" font-family="Menlo" font-size="10.00">User { id, name: String } (clone)</text>
</g>
<!-- users&#45;&gt;m1 -->
</g>
</svg>
