<svg xmlns="http://www.w3.org/2000/svg" viewBox="0 0 560 170.0" width="560" height="170.0" font-family="Helvetica, Arial, sans-serif">
<rect width="100%" height="100%" fill="#ffffff"/>

<text x="20" y="22" font-size="12.0" fill="#1d2733" text-anchor="start"  font-weight="bold">Reversing "abcd" with two pointers</text>
<text x="20" y="61" font-size="11.0" fill="#5b6b7c" text-anchor="start" >start</text>
<rect x="130" y="40" width="44" height="30" rx="4" fill="#e3f1ea" stroke="#1d2733" stroke-width="1.4"/>
<text x="152.0" y="59.32" font-size="12.0" fill="#1d2733" text-anchor="middle" font-family="Menlo, monospace" xml:space="preserve">a</text>
<rect x="174" y="40" width="44" height="30" rx="4" fill="#eef3f7" stroke="#1d2733" stroke-width="1.4"/>
<text x="196.0" y="59.32" font-size="12.0" fill="#1d2733" text-anchor="middle" font-family="Menlo, monospace" xml:space="preserve">b</text>
<rect x="218" y="40" width="44" height="30" rx="4" fill="#eef3f7" stroke="#1d2733" stroke-width="1.4"/>
<text x="240.0" y="59.32" font-size="12.0" fill="#1d2733" text-anchor="middle" font-family="Menlo, monospace" xml:space="preserve">c</text>
<rect x="262" y="40" width="44" height="30" rx="4" fill="#e3f1ea" stroke="#1d2733" stroke-width="1.4"/>
<text x="284.0" y="59.32" font-size="12.0" fill="#1d2733" text-anchor="middle" font-family="Menlo, monospace" xml:space="preserve">d</text>
<text x="152" y="37" font-size="9.0" fill="#2f7f86" text-anchor="middle" >start</text>
<text x="284" y="37" font-size="9.0" fill="#2f7f86" text-anchor="middle" >end</text>
<text x="20" y="103" font-size="11.0" fill="#5b6b7c" text-anchor="start" >after swap 1</text>
<rect x="130" y="82" width="44" height="30" rx="4" fill="#eef3f7" stroke="#1d2733" stroke-width="1.4"/>
<text x="152.0" y="101.32" font-size="12.0" fill="#1d2733" text-anchor="middle" font-family="Menlo, monospace" xml:space="preserve">d</text>
<rect x="174" y="82" width="44" height="30" rx="4" fill="#e3f1ea" stroke="#1d2733" stroke-width="1.4"/>
<text x="196.0" y="101.32" font-size="12.0" fill="#1d2733" text-anchor="middle" font-family="Menlo, monospace" xml:space="preserve">b</text>
<rect x="218" y="82" width="44" height="30" rx="4" fill="#e3f1ea" stroke="#1d2733" stroke-width="1.4"/>
<text x="240.0" y="101.32" font-size="12.0" fill="#1d2733" text-anchor="middle" font-family="Menlo, monospace" xml:space="preserve">c</text>
<rect x="262" y="82" width="44" height="30" rx="4" fill="#eef3f7" stroke="#1d2733" stroke-width="1.4"/>
<text x="284.0" y="101.32" font-size="12.0" fill="#1d2733" text-anchor="middle" font-family="Menlo, monospace" xml:space="preserve">a</text>
<text x="196" y="79" font-size="9.0" fill="#2f7f86" text-anchor="middle" >start</text>
<text x="240" y="79" font-size="9.0" fill="#2f7f86" text-anchor="middle" >end</text>
<text x="20" y="145" font-size="11.0" fill="#5b6b7c" text-anchor="start" >after swap 2</text>
<rect x="130" y="124" width="44" height="30" rx="4" fill="#eef3f7" stroke="#1d2733" stroke-width="1.4"/>
<text x="152.0" y="143.32" font-size="12.0" fill="#1d2733" text-anchor="middle" font-family="Menlo, monospace" xml:space="preserve">d</text>
<rect x="174" y="124" width="44" height="30" rx="4" fill="#eef3f7" stroke="#1d2733" stroke-width="1.4"/>
<text x="196.0" y="143.32" font-size="12.0" fill="#1d2733" text-anchor="middle" font-family="Menlo, monospace" xml:space="preserve">c</text>
<rect x="218" y="124" width="44" height="30" rx="4" fill="#eef3f7" stroke="#1d2733" stroke-width="1.4"/>
<text x="240.0" y="143.32" font-size="12.0" fill="#1d2733" text-anchor="middle" font-family="Menlo, monospace" xml:space="preserve">b</text>
<rect x="262" y="124" width="44" height="30" rx="4" fill="#eef3f7" stroke="#1d2733" stroke-width="1.4"/>
<text x="284.0" y="143.32" font-size="12.0" fill="#1d2733" text-anchor="middle" font-family="Menlo, monospace" xml:space="preserve">a</text>
<text x="330" y="145" font-size="10.0" fill="#5b6b7c" text-anchor="start" >start &gt; end: stop</text>
</svg>
