<?xml version="1.0" encoding="UTF-8" standalone="no"?>
<!DOCTYPE svg PUBLIC "-//W3C//DTD SVG 1.1//EN"
 "http://www.w3.org/Graphics/SVG/1.1/DTD/svg11.dtd">
<!-- Generated by graphviz version 13.1.0 (20250701.0955)
 -->
<!-- Title: tail Pages: 1 -->
<svg width="713pt" height="117pt"
 viewBox="0.00 0.00 713.00 117.00" xmlns="http://www.w3.org/2000/svg" xmlns:xlink="http://www.w3.org/1999/xlink">
<g id="graph0" class="graph" transform="scale(1 1) rotate(0) translate(14.4 102.4)">
<title>tail</title>
<!-- dummy -->
<g id="node1" class="node">
<title>dummy</title>
<polygon fill="#e9eef3" stroke="#1d2733" stroke-width="1.4" stroke-dasharray="5,2" points="0,-0.5 0,-36.5 106.56,-36.5 106.56,-0.5 0,-0.5"/>
<text xml:space="preserve" text-anchor="middle" x="32.64" y="-15.68" font-family="Menlo" font-size="10.00">dummy: 0</text>
<polyline fill="none" stroke="#1d2733" stroke-width="1.4" stroke-dasharray="5,2" points="65.28,-1.11 65.28,-36.5"/>
<text xml:space="preserve" text-anchor="middle" x="85.92" y="-15.68" font-family="Menlo" font-size="10.00">next</text>
</g>
<!-- m1 -->
<g id="node2" class="node">
<title>m1</title>
<path fill="#eef3f7" stroke="#1d2733" stroke-width="1.4" d="M151.56,-0.5C151.56,-0.5 192.12,-0.5 192.12,-0.5 198.12,-0.5 204.12,-6.5 204.12,-12.5 204.12,-12.5 204.12,-24.5 204.12,-24.5 204.12,-30.5 198.12,-36.5 192.12,-36.5 192.12,-36.5 151.56,-36.5 151.56,-36.5 145.56,-36.5 139.56,-30.5 139.56,-24.5 139.56,-24.5 139.56,-12.5 139.56,-12.5 139.56,-6.5 145.56,-0.5 151.56,-0.5"/>
<text xml:space="preserve" text-anchor="middle" x="151.2" y="-15.68" font-family="Menlo" font-size="10.00">1</text>
<polyline fill="none" stroke="#1d2733" stroke-width="1.4" points="162.84,-1.11 162.84,-36.5"/>
<text xml:space="preserve" text-anchor="middle" x="183.48" y="-15.68" font-family="Menlo" font-size="10.00">next</text>
</g>
<!-- dummy&#45;&gt;m1 -->
<g id="edge1" class="edge">
<title>dummy:n&#45;&gt;m1</title>
<path fill="none" stroke="#1d2733" stroke-width="1.3" d="M106.56,-18.8C114.26,-18.8 122.48,-18.78 130.39,-18.75"/>
<polygon fill="#1d2733" stroke="#1d2733" stroke-width="1.3" points="130.17,-21.2 137.16,-18.72 130.15,-16.3 130.17,-21.2"/>
</g>
<!-- m2 -->
<g id="node3" class="node">
<title>m2</title>
<path fill="#fdf6e8" stroke="#1d2733" stroke-width="1.4" d="M249.12,-0.5C249.12,-0.5 325.68,-0.5 325.68,-0.5 331.68,-0.5 337.68,-6.5 337.68,-12.5 337.68,-12.5 337.68,-24.5 337.68,-24.5 337.68,-30.5 331.68,-36.5 325.68,-36.5 325.68,-36.5 249.12,-36.5 249.12,-36.5 243.12,-36.5 237.12,-30.5 237.12,-24.5 237.12,-24.5 237.12,-12.5 237.12,-12.5 237.12,-6.5 243.12,-0.5 249.12,-0.5"/>
<text xml:space="preserve" text-anchor="middle" x="266.76" y="-15.68" font-family="Menlo" font-size="10.00">tail: 1</text>
<polyline fill="none" stroke="#1d2733" stroke-width="1.4" points="296.4,-1.11 296.4,-36.5"/>
<text xml:space="preserve" text-anchor="middle" x="317.04" y="-15.68" font-family="Menlo" font-size="10.00">next</text>
</g>
<!-- m1&#45;&gt;m2 -->
<g id="edge2" class="edge">
<title>m1:n&#45;&gt;m2</title>
<path fill="none" stroke="#1d2733" stroke-width="1.3" d="M204.12,-18.8C211.8,-18.8 219.88,-18.79 227.86,-18.77"/>
<polygon fill="#1d2733" stroke="#1d2733" stroke-width="1.3" points="227.84,-21.22 234.83,-18.75 227.82,-16.32 227.84,-21.22"/>
</g>
<!-- gap -->
<g id="node4" class="node">
<title>gap</title>
<ellipse fill="#eef3f7" stroke="#1d2733" stroke-width="1.4" cx="415.31" cy="-18.5" rx="2.88" ry="2.88"/>
</g>
<!-- m2&#45;&gt;gap -->
<g id="edge3" class="edge">
<title>m2:n&#45;&gt;gap</title>
<path fill="none" stroke="#1d2733" stroke-width="1.3" stroke-dasharray="5,2" d="M337.68,-18.8C361,-18.8 388.32,-18.66 403.22,-18.57"/>
<polygon fill="#1d2733" stroke="#1d2733" stroke-width="1.3" points="402.97,-21.02 409.96,-18.53 402.94,-16.12 402.97,-21.02"/>
<text xml:space="preserve" text-anchor="middle" x="375.05" y="-20.53" font-family="Helvetica,sans-Serif" font-size="10.00"> next pick</text>
</g>
<!-- r -->
<g id="node7" class="node">
<title>r</title>
<path fill="#fbe3d6" stroke="#1d2733" stroke-width="1.4" d="M520.69,-0.5C520.69,-0.5 585.25,-0.5 585.25,-0.5 591.25,-0.5 597.25,-6.5 597.25,-12.5 597.25,-12.5 597.25,-24.5 597.25,-24.5 597.25,-30.5 591.25,-36.5 585.25,-36.5 585.25,-36.5 520.69,-36.5 520.69,-36.5 514.69,-36.5 508.69,-30.5 508.69,-24.5 508.69,-24.5 508.69,-12.5 508.69,-12.5 508.69,-6.5 514.69,-0.5 520.69,-0.5"/>
<text xml:space="preserve" text-anchor="middle" x="541.33" y="-15.68" font-family="Menlo" font-size="10.00">right: 3</text>
<polyline fill="none" stroke="#1d2733" stroke-width="1.4" points="573.97,-1.11 573.97,-36.5"/>
<text xml:space="preserve" text-anchor="middle" x="585.61" y="-15.68" font-family="Menlo" font-size="10.00"> </text>
</g>
<!-- gap&#45;&gt;r -->
<g id="edge6" class="edge">
<title>gap&#45;&gt;r</title>
<path fill="none" stroke="#d9622b" stroke-width="1.3" stroke-dasharray="1,5" d="M418.66,-18.5C428.39,-18.5 466.44,-18.5 499.41,-18.5"/>
<polygon fill="#d9622b" stroke="#d9622b" stroke-width="1.3" points="499.14,-20.95 506.14,-18.5 499.14,-16.05 499.14,-20.95"/>
<text xml:space="preserve" text-anchor="middle" x="463.44" y="-20.25" font-family="Helvetica,sans-Serif" font-size="10.00"> smaller head</text>
</g>
<!-- l -->
<g id="node5" class="node">
<title>l</title>
<path fill="#eef3f7" stroke="#1d2733" stroke-width="1.4" d="M24,-51.5C24,-51.5 82.56,-51.5 82.56,-51.5 88.56,-51.5 94.56,-57.5 94.56,-63.5 94.56,-63.5 94.56,-75.5 94.56,-75.5 94.56,-81.5 88.56,-87.5 82.56,-87.5 82.56,-87.5 24,-87.5 24,-87.5 18,-87.5 12,-81.5 12,-75.5 12,-75.5 12,-63.5 12,-63.5 12,-57.5 18,-51.5 24,-51.5"/>
<text xml:space="preserve" text-anchor="middle" x="41.64" y="-66.68" font-family="Menlo" font-size="10.00">left: 4</text>
<polyline fill="none" stroke="#1d2733" stroke-width="1.4" points="71.28,-52.11 71.28,-87.5"/>
<text xml:space="preserve" text-anchor="middle" x="82.92" y="-66.68" font-family="Menlo" font-size="10.00"> </text>
</g>
<!-- l5 -->
<g id="node6" class="node">
<title>l5</title>
<path fill="#eef3f7" stroke="#1d2733" stroke-width="1.4" d="M156.84,-51.5C156.84,-51.5 186.84,-51.5 186.84,-51.5 192.84,-51.5 198.84,-57.5 198.84,-63.5 198.84,-63.5 198.84,-75.5 198.84,-75.5 198.84,-81.5 192.84,-87.5 186.84,-87.5 186.84,-87.5 156.84,-87.5 156.84,-87.5 150.84,-87.5 144.84,-81.5 144.84,-75.5 144.84,-75.5 144.84,-63.5 144.84,-63.5 144.84,-57.5 150.84,-51.5 156.84,-51.5"/>
<text xml:space="preserve" text-anchor="middle" x="171.84" y="-66.68" font-family="Menlo" font-size="10.00">5</text>
</g>
<!-- l&#45;&gt;l5 -->
<g id="edge4" class="edge">
<title>l:n&#45;&gt;l5</title>
<path fill="none" stroke="#1d2733" stroke-width="1.3" d="M95.56,-69.81C108.6,-69.81 122.91,-69.76 135.52,-69.7"/>
<polygon fill="#1d2733" stroke="#1d2733" stroke-width="1.3" points="135.41,-72.15 142.39,-69.67 135.38,-67.25 135.41,-72.15"/>
</g>
<!-- r4 -->
<g id="node8" class="node">
<title>r4</title>
<path fill="#eef3f7" stroke="#1d2733" stroke-width="1.4" d="M642.25,-0.5C642.25,-0.5 672.25,-0.5 672.25,-0.5 678.25,-0.5 684.25,-6.5 684.25,-12.5 684.25,-12.5 684.25,-24.5 684.25,-24.5 684.25,-30.5 678.25,-36.5 672.25,-36.5 672.25,-36.5 642.25,-36.5 642.25,-36.5 636.25,-36.5 630.25,-30.5 630.25,-24.5 630.25,-24.5 630.25,-12.5 630.25,-12.5 630.25,-6.5 636.25,-0.5 642.25,-0.5"/>
<text xml:space="preserve" text-anchor="middle" x="657.25" y="-15.68" font-family="Menlo" font-size="10.00">4</text>
</g>
<!-- r&#45;&gt;r4 -->
<g id="edge5" class="edge">
<title>r:n&#45;&gt;r4</title>
<path fill="none" stroke="#1d2733" stroke-width="1.3" d="M597.25,-18.8C604.91,-18.8 613.12,-18.78 620.92,-18.74"/>
<polygon fill="#1d2733" stroke="#1d2733" stroke-width="1.3" points="620.86,-21.19 627.85,-18.71 620.84,-16.29 620.86,-21.19"/>
</g>
</g>
</svg>
