<?xml version="1.0" encoding="UTF-8" standalone="no"?>
<!DOCTYPE svg PUBLIC "-//W3C//DTD SVG 1.1//EN"
 "http://www.w3.org/Graphics/SVG/1.1/DTD/svg11.dtd">
<!-- Generated by graphviz version 13.1.0 (20250701.0955)
 -->
<!-- Title: arena Pages: 1 -->
<svg width="1494pt" height="105pt"
 viewBox="0.00 0.00 1494.00 105.00" xmlns="http://www.w3.org/2000/svg" xmlns:xlink="http://www.w3.org/1999/xlink">
<g id="graph0" class="graph" transform="scale(1 1) rotate(0) translate(14.4 91.07)">
<title>arena</title>
<!-- map -->
<g id="node1" class="node">
<title>map</title>
<path fill="#fdf6e8" stroke="#1d2733" stroke-width="1.4" d="M12,-40.17C12,-40.17 387.12,-40.17 387.12,-40.17 393.12,-40.17 399.12,-46.17 399.12,-52.17 399.12,-52.17 399.12,-64.17 399.12,-64.17 399.12,-70.17 393.12,-76.17 387.12,-76.17 387.12,-76.17 12,-76.17 12,-76.17 6,-76.17 0,-70.17 0,-64.17 0,-64.17 0,-52.17 0,-52.17 0,-46.17 6,-40.17 12,-40.17"/>
<text xml:space="preserve" text-anchor="middle" x="101.64" y="-55.35" font-family="Menlo" font-size="10.00">lookup_table: HashMap&lt;K, usize&gt;</text>
<polyline fill="none" stroke="#1d2733" stroke-width="1.4" points="203.28,-40.78 203.28,-76.17"/>
<text xml:space="preserve" text-anchor="middle" x="235.92" y="-55.35" font-family="Menlo" font-size="10.00">&quot;A&quot; &#45;&gt; 2</text>
<polyline fill="none" stroke="#1d2733" stroke-width="1.4" points="268.56,-40.78 268.56,-76.17"/>
<text xml:space="preserve" text-anchor="middle" x="301.2" y="-55.35" font-family="Menlo" font-size="10.00">&quot;B&quot; &#45;&gt; 0</text>
<polyline fill="none" stroke="#1d2733" stroke-width="1.4" points="333.84,-40.78 333.84,-76.17"/>
<text xml:space="preserve" text-anchor="middle" x="366.48" y="-55.35" font-family="Menlo" font-size="10.00">&quot;C&quot; &#45;&gt; 1</text>
</g>
<!-- nodes -->
<g id="node2" class="node">
<title>nodes</title>
<path fill="#eef3f7" stroke="#1d2733" stroke-width="1.4" d="M454.12,-40.17C454.12,-40.17 1045.24,-40.17 1045.24,-40.17 1051.24,-40.17 1057.24,-46.17 1057.24,-52.17 1057.24,-52.17 1057.24,-64.17 1057.24,-64.17 1057.24,-70.17 1051.24,-76.17 1045.24,-76.17 1045.24,-76.17 454.12,-76.17 454.12,-76.17 448.12,-76.17 442.12,-70.17 442.12,-64.17 442.12,-64.17 442.12,-52.17 442.12,-52.17 442.12,-46.17 448.12,-40.17 454.12,-40.17"/>
<text xml:space="preserve" text-anchor="middle" x="498.76" y="-55.35" font-family="Menlo" font-size="10.00">nodes: Vec&lt;Node&gt;</text>
<polyline fill="none" stroke="#1d2733" stroke-width="1.4" points="555.4,-40.78 555.4,-76.17"/>
<text xml:space="preserve" text-anchor="middle" x="642.04" y="-55.35" font-family="Menlo" font-size="10.00">[0] key B prev 1 next None</text>
<polyline fill="none" stroke="#1d2733" stroke-width="1.4" points="728.68,-40.78 728.68,-76.17"/>
<text xml:space="preserve" text-anchor="middle" x="806.32" y="-55.35" font-family="Menlo" font-size="10.00">[1] key C prev 2 next 0</text>
<polyline fill="none" stroke="#1d2733" stroke-width="1.4" points="883.96,-40.78 883.96,-76.17"/>
<text xml:space="preserve" text-anchor="middle" x="970.6" y="-55.35" font-family="Menlo" font-size="10.00">[2] key A prev None next 1</text>
</g>
<!-- map&#45;&gt;nodes -->
<g id="edge1" class="edge">
<title>map:a&#45;&gt;nodes:s2</title>
<path fill="none" stroke="#1d2733" stroke-width="1.3" d="M235.92,-39.78C235.92,-1.2 892.44,0.91 964.25,-33.45"/>
<polygon fill="#1d2733" stroke="#1d2733" stroke-width="1.3" points="962.52,-35.18 969.21,-38.39 965.98,-31.71 962.52,-35.18"/>
</g>
<!-- map&#45;&gt;nodes -->
<g id="edge2" class="edge">
<title>map:b&#45;&gt;nodes:s0</title>
<path fill="none" stroke="#1d2733" stroke-width="1.3" d="M301.2,-39.78C301.2,-4.57 595.79,-2.1 637.22,-32.35"/>
<polygon fill="#1d2733" stroke="#1d2733" stroke-width="1.3" points="635.1,-33.59 640.97,-38.13 639.21,-30.92 635.1,-33.59"/>
</g>
<!-- map&#45;&gt;nodes -->
<g id="edge3" class="edge">
<title>map:c&#45;&gt;nodes:s1</title>
<path fill="none" stroke="#1d2733" stroke-width="1.3" d="M399.12,-58.47C419.79,-58.47 421.85,-44.82 442.12,-40.78 518.39,-25.59 784.38,36.06 805.05,-30.96"/>
<polygon fill="#1d2733" stroke="#1d2733" stroke-width="1.3" points="802.61,-31.25 806.04,-37.83 807.46,-30.55 802.61,-31.25"/>
</g>
<!-- ends -->
<g id="node3" class="node">
<title>ends</title>
<path fill="#e3f1ea" stroke="#1d2733" stroke-width="1.4" d="M1112.24,-40.17C1112.24,-40.17 1452.8,-40.17 1452.8,-40.17 1458.8,-40.17 1464.8,-46.17 1464.8,-52.17 1464.8,-52.17 1464.8,-64.17 1464.8,-64.17 1464.8,-70.17 1458.8,-76.17 1452.8,-76.17 1452.8,-76.17 1112.24,-76.17 1112.24,-76.17 1106.24,-76.17 1100.24,-70.17 1100.24,-64.17 1100.24,-64.17 1100.24,-52.17 1100.24,-52.17 1100.24,-46.17 1106.24,-40.17 1112.24,-40.17"/>
<text xml:space="preserve" text-anchor="middle" x="1168.88" y="-55.35" font-family="Menlo" font-size="10.00">head = Some(2) (MRU)</text>
<polyline fill="none" stroke="#1d2733" stroke-width="1.4" points="1237.52,-40.78 1237.52,-76.17"/>
<text xml:space="preserve" text-anchor="middle" x="1351.16" y="-55.35" font-family="Menlo" font-size="10.00">tail = Some(0) (LRU, next to evict)</text>
</g>
<!-- nodes&#45;&gt;ends -->
</g>
</svg>
