<?xml version="1.0" encoding="UTF-8" standalone="no"?>
<!DOCTYPE svg PUBLIC "-//W3C//DTD SVG 1.1//EN"
 "http://www.w3.org/Graphics/SVG/1.1/DTD/svg11.dtd">
<!-- Generated by graphviz version 13.1.0 (20250701.0955)
 -->
<!-- Title: readylist Pages: 1 -->
<svg width="847pt" height="103pt"
 viewBox="0.00 0.00 847.00 103.00" xmlns="http://www.w3.org/2000/svg" xmlns:xlink="http://www.w3.org/1999/xlink">
<g id="graph0" class="graph" transform="scale(1 1) rotate(0) translate(14.4 88.71)">
<title>readylist</title>
<!-- data -->
<g id="node1" class="node">
<title>data</title>
<path fill="#fdf6e8" stroke="#1d2733" stroke-width="1.4" d="M93.03,-67.74C93.03,-67.74 12,-67.74 12,-67.74 6,-67.74 0,-61.74 0,-55.74 0,-55.74 0,-43.74 0,-43.74 0,-37.74 6,-31.74 12,-31.74 12,-31.74 93.03,-31.74 93.03,-31.74 99.03,-31.74 105.03,-37.74 105.03,-43.74 105.03,-43.74 105.03,-55.74 105.03,-55.74 105.03,-61.74 99.03,-67.74 93.03,-67.74"/>
<text xml:space="preserve" text-anchor="middle" x="52.51" y="-52.79" font-family="Menlo" font-size="11.00">bytes arrive</text>
<text xml:space="preserve" text-anchor="middle" x="52.51" y="-39.29" font-family="Menlo" font-size="11.00">on the socket</text>
</g>
<!-- callback -->
<g id="node2" class="node">
<title>callback</title>
<path fill="#eef3f7" stroke="#1d2733" stroke-width="1.4" d="M251.31,-67.74C251.31,-67.74 150.03,-67.74 150.03,-67.74 144.03,-67.74 138.03,-61.74 138.03,-55.74 138.03,-55.74 138.03,-43.74 138.03,-43.74 138.03,-37.74 144.03,-31.74 150.03,-31.74 150.03,-31.74 251.31,-31.74 251.31,-31.74 257.31,-31.74 263.31,-37.74 263.31,-43.74 263.31,-43.74 263.31,-55.74 263.31,-55.74 263.31,-61.74 257.31,-67.74 251.31,-67.74"/>
<text xml:space="preserve" text-anchor="middle" x="200.67" y="-52.79" font-family="Menlo" font-size="11.00">epoll&#39;s callback</text>
<text xml:space="preserve" text-anchor="middle" x="200.67" y="-39.29" font-family="Menlo" font-size="11.00">adds the fd</text>
</g>
<!-- data&#45;&gt;callback -->
<g id="edge1" class="edge">
<title>data&#45;&gt;callback</title>
<path fill="none" stroke="#1d2733" stroke-width="1.3" d="M105.46,-49.74C112.97,-49.74 120.8,-49.74 128.61,-49.74"/>
<polygon fill="#1d2733" stroke="#1d2733" stroke-width="1.3" points="128.42,-52.19 135.42,-49.74 128.42,-47.29 128.42,-52.19"/>
</g>
<!-- ready -->
<g id="node3" class="node">
<title>ready</title>
<path fill="#e6ecf6" stroke="#1d2733" stroke-width="1.4" d="M369.09,-67.74C369.09,-67.74 308.31,-67.74 308.31,-67.74 302.31,-67.74 296.31,-61.74 296.31,-55.74 296.31,-55.74 296.31,-43.74 296.31,-43.74 296.31,-37.74 302.31,-31.74 308.31,-31.74 308.31,-31.74 369.09,-31.74 369.09,-31.74 375.09,-31.74 381.09,-37.74 381.09,-43.74 381.09,-43.74 381.09,-55.74 381.09,-55.74 381.09,-61.74 375.09,-67.74 369.09,-67.74"/>
<text xml:space="preserve" text-anchor="middle" x="338.7" y="-46.04" font-family="Menlo" font-size="11.00">ready list</text>
</g>
<!-- callback&#45;&gt;ready -->
<g id="edge2" class="edge">
<title>callback&#45;&gt;ready</title>
<path fill="none" stroke="#1d2733" stroke-width="1.3" d="M263.71,-49.74C271.57,-49.74 279.53,-49.74 287.18,-49.74"/>
<polygon fill="#1d2733" stroke="#1d2733" stroke-width="1.3" points="287.02,-52.19 294.02,-49.74 287.02,-47.29 287.02,-52.19"/>
</g>
<!-- wait -->
<g id="node4" class="node">
<title>wait</title>
<path fill="#e3f1ea" stroke="#1d2733" stroke-width="1.4" d="M620.12,-67.74C620.12,-67.74 532.34,-67.74 532.34,-67.74 526.34,-67.74 520.34,-61.74 520.34,-55.74 520.34,-55.74 520.34,-43.74 520.34,-43.74 520.34,-37.74 526.34,-31.74 532.34,-31.74 532.34,-31.74 620.12,-31.74 620.12,-31.74 626.12,-31.74 632.12,-37.74 632.12,-43.74 632.12,-43.74 632.12,-55.74 632.12,-55.74 632.12,-61.74 626.12,-67.74 620.12,-67.74"/>
<text xml:space="preserve" text-anchor="middle" x="576.23" y="-52.79" font-family="Menlo" font-size="11.00">epoll_wait</text>
<text xml:space="preserve" text-anchor="middle" x="576.23" y="-39.29" font-family="Menlo" font-size="11.00">reports the fd</text>
</g>
<!-- ready&#45;&gt;wait -->
<g id="edge3" class="edge">
<title>ready&#45;&gt;wait</title>
<path fill="none" stroke="#1d2733" stroke-width="1.3" d="M381.54,-49.74C417.5,-49.74 469.93,-49.74 511.17,-49.74"/>
<polygon fill="#1d2733" stroke="#1d2733" stroke-width="1.3" points="511.09,-52.19 518.09,-49.74 511.09,-47.29 511.09,-52.19"/>
</g>
<!-- wait&#45;&gt;ready -->
<g id="edge5" class="edge">
<title>wait&#45;&gt;ready</title>
<path fill="none" stroke="#1d2733" stroke-width="1.3" stroke-dasharray="5,2" d="M549.68,-31.2C536.77,-22.97 520.45,-14.19 504.34,-9.99 458.22,2.06 442.59,4.23 397.09,-9.99 386.52,-13.29 376.18,-19.3 367.25,-25.67"/>
<polygon fill="#1d2733" stroke="#1d2733" stroke-width="1.3" points="365.8,-23.69 361.69,-29.86 368.75,-27.61 365.8,-23.69"/>
<text xml:space="preserve" text-anchor="middle" x="450.71" y="-34.24" font-family="Helvetica,sans-Serif" font-size="10.00">level&#45;triggered: put back,</text>
<text xml:space="preserve" text-anchor="middle" x="450.71" y="-22.99" font-family="Helvetica,sans-Serif" font-size="10.00">and checked again</text>
<text xml:space="preserve" text-anchor="middle" x="450.71" y="-11.74" font-family="Helvetica,sans-Serif" font-size="10.00">at the next epoll_wait</text>
</g>
<!-- gone -->
<g id="node5" class="node">
<title>gone</title>
<path fill="#fbe3d6" stroke="#1d2733" stroke-width="1.4" d="M806.65,-74.31C806.65,-74.31 691.87,-74.31 691.87,-74.31 685.87,-74.31 679.87,-68.31 679.87,-62.31 679.87,-62.31 679.87,-37.17 679.87,-37.17 679.87,-31.17 685.87,-25.17 691.87,-25.17 691.87,-25.17 806.65,-25.17 806.65,-25.17 812.65,-25.17 818.65,-31.17 818.65,-37.17 818.65,-37.17 818.65,-62.31 818.65,-62.31 818.65,-68.31 812.65,-74.31 806.65,-74.31"/>
<text xml:space="preserve" text-anchor="middle" x="749.26" y="-59.54" font-family="Menlo" font-size="11.00">edge&#45;triggered:</text>
<text xml:space="preserve" text-anchor="middle" x="749.26" y="-46.04" font-family="Menlo" font-size="11.00">off the list until</text>
<text xml:space="preserve" text-anchor="middle" x="749.26" y="-32.54" font-family="Menlo" font-size="11.00">the next arrival</text>
</g>
<!-- wait&#45;&gt;gone -->
<g id="edge4" class="edge">
<title>wait&#45;&gt;gone</title>
<path fill="none" stroke="#1d2733" stroke-width="1.3" d="M632.76,-49.74C644.8,-49.74 657.76,-49.74 670.48,-49.74"/>
<polygon fill="#1d2733" stroke="#1d2733" stroke-width="1.3" points="670.27,-52.19 677.27,-49.74 670.27,-47.29 670.27,-52.19"/>
<text xml:space="preserve" text-anchor="middle" x="656" y="-51.49" font-family="Helvetica,sans-Serif" font-size="10.00"> ET</text>
</g>
</g>
</svg>
